<svg width="134" height="100" viewBox="0 0 134 100" fill="none" xmlns="http://www.w3.org/2000/svg">
<path d="M41.3397 15C45.1887 8.33334 54.8113 8.33333 58.6603 15L84.641 60C88.49 66.6667 83.6788 75 75.9808 75H24.0192C16.3212 75 11.51 66.6667 15.359 60L41.3397 15Z" fill="#D9D9D9"/>
<path d="M58.3397 15C62.1887 8.33334 71.8113 8.33333 75.6603 15L101.641 60C105.49 66.6667 100.679 75 92.9808 75H41.0192C33.3212 75 28.51 66.6667 32.359 60L58.3397 15Z" fill="#CBCBCB"/>
<path d="M75.3397 15C79.1887 8.33334 88.8113 8.33333 92.6603 15L118.641 60C122.49 66.6667 117.679 75 109.981 75H58.0192C50.3212 75 45.51 66.6667 49.359 60L75.3397 15Z" fill="#C4C4C4"/>
</svg>
